<?xml version="1.0" encoding="utf-8"?>
<!-- Generator: Adobe Illustrator 26.4.1, SVG Export Plug-In . SVG Version: 6.00 Build 0)  -->
<svg version="1.1" id="a" xmlns="http://www.w3.org/2000/svg" xmlns:xlink="http://www.w3.org/1999/xlink" x="0px" y="0px"
	 viewBox="0 0 500 500" style="enable-background:new 0 0 500 500;" xml:space="preserve">
<style type="text/css">
	.st0{fill:#020202;}
	.st1{fill:#FFFFFF;}
</style>
<rect class="st0" width="500" height="500"/>
<path class="st1" d="M381.1,163.4h-42.4c-4.9,0-9.6-2.1-12.9-5.8l-17.2-19.4c-2.6-2.9-6.2-4.6-10.1-4.6s-7.5,1.7-10.1,4.6
	l-14.8,16.7c-4.8,5.4-11.8,8.6-19,8.6H22.5c-6.6,18.8-10.9,38.7-12.6,59.4H229c3.9,0,7.5-1.6,10.2-4.4l20.4-21.3
	c2.5-2.7,6.1-4.2,9.8-4.2h0.8c3.9,0,7.5,1.7,10.1,4.6l17.2,19.4c3.3,3.7,8,5.8,12.9,5.8h178.8c-1.7-20.6-6-40.6-12.6-59.4
	L381.1,163.4L381.1,163.4z"/>
<path class="st1" d="M142.5,347.7c3.9,0,7.5-1.6,10.2-4.4l20.4-21.3c2.6-2.7,6.1-4.2,9.8-4.2h0.8c3.9,0,7.6,1.7,10.1,4.5l17.2,19.4
	c3.3,3.7,8,5.8,12.9,5.8h242.4c9.1-18.8,15.7-38.9,19.7-60H253.3c-4.9,0-9.6-2.1-12.9-5.8l-17.2-19.4c-2.6-2.9-6.2-4.5-10.1-4.5
	s-7.6,1.7-10.1,4.5l-14.8,16.7c-4.8,5.5-11.8,8.6-19.1,8.6h-156c4,21.1,10.6,41.2,19.7,60L142.5,347.7L142.5,347.7z"/>
<path class="st1" d="M314.4,98.5c3.9,0,7.5-1.6,10.2-4.3L345,72.9c2.5-2.7,6.1-4.2,9.8-4.2h0.8c3.9,0,7.5,1.7,10.1,4.6l17.2,19.4
	c3.3,3.7,8,5.8,12.9,5.8h46.1C398,40.2,328.2,2.4,249.6,2.4S101.1,40.2,57.2,98.5H314.4z"/>
<path class="st1" d="M221.8,407.1h-63c-4.9,0-9.6-2.1-12.9-5.8l-17.2-19.4c-2.6-2.9-6.3-4.5-10.1-4.5s-7.6,1.7-10.1,4.5l-14.8,16.7
	c-4.8,5.5-11.8,8.6-19.1,8.6h-1c43.9,47,106.4,76.5,175.9,76.5s131.9-29.5,175.9-76.5L221.8,407.1L221.8,407.1z"/>
</svg>