<?xml version="1.0" encoding="UTF-8"?><svg id="a" xmlns="http://www.w3.org/2000/svg" viewBox="0 0 1000 245.58"><path d="M764.21,82.72h-20.55c-2.39,0-4.67-1.03-6.26-2.82l-8.33-9.41c-1.24-1.4-3.03-2.21-4.9-2.21s-3.66,.8-4.9,2.21l-7.15,8.08c-2.34,2.64-5.7,4.16-9.23,4.16h-112.46c-3.2,9.13-5.29,18.77-6.12,28.78h106.17c1.87,0,3.65-.76,4.94-2.11l9.89-10.31c1.23-1.29,2.94-2.02,4.72-2.02h.41c1.87,0,3.66,.8,4.9,2.21l8.33,9.41c1.59,1.79,3.86,2.82,6.26,2.82h86.66c-.83-10.01-2.92-19.65-6.12-28.78h-46.26Z"/><path d="M648.57,172c1.87,0,3.65-.76,4.94-2.11l9.89-10.31c1.23-1.29,2.94-2.02,4.72-2.02h.41c1.87,0,3.66,.8,4.9,2.21l8.33,9.41c1.59,1.79,3.86,2.82,6.26,2.82h117.44c4.4-9.09,7.62-18.85,9.54-29.06h-112.72c-2.39,0-4.67-1.03-6.26-2.82l-8.33-9.41c-1.24-1.4-3.03-2.21-4.9-2.21s-3.66,.8-4.9,2.21l-7.15,8.08c-2.34,2.64-5.7,4.16-9.23,4.16h-75.59c1.92,10.22,5.14,19.97,9.54,29.06h53.11Z"/><path d="M731.88,51.28c1.87,0,3.65-.76,4.94-2.11l9.89-10.31c1.23-1.29,2.94-2.02,4.72-2.02h.41c1.87,0,3.66,.8,4.9,2.21l8.33,9.41c1.59,1.79,3.86,2.82,6.26,2.82h22.33c-21.27-28.27-55.1-46.56-93.2-46.56s-71.93,18.29-93.2,46.56h124.63Z"/><path d="M687.02,200.81h-30.54c-2.39,0-4.67-1.03-6.26-2.82l-8.33-9.41c-1.24-1.4-3.03-2.21-4.9-2.21s-3.66,.8-4.9,2.21l-7.15,8.08c-2.34,2.64-5.7,4.16-9.23,4.16h-.48c21.28,22.8,51.57,37.07,85.22,37.07s63.94-14.27,85.22-37.07h-98.65Z"/><path d="M185.1,230.35l-23.72-57.61H55.41l-23.72,57.61H4.27L108.24,12.25l104.28,218.1h-27.42Zm-120.76-79.48h87.8L108.1,57.95l-43.75,92.92Z"/><path d="M250.39,230.35V12.25h60.69c47.44,0,72.39,21.87,72.39,62.84s-26.49,62.23-72.7,62.23h-34.81v93.03h-25.57Zm25.57-115.83h28.96c36.66,0,52.68-12.01,52.68-39.43s-16.33-40.05-52.68-40.05h-28.96V114.52Z"/><path d="M476.34,35.66h-75.16V12.25h175.9v23.41h-75.17V230.35h-25.57V35.66Z"/><path d="M852.59,190.61l22.02-14.94,1.7,3.54c13.55,24.64,28.34,34.5,50.83,34.5,24.95,0,42.51-17.25,42.51-38.2,0-19.72-9.86-32.96-49.29-49.29-45.28-18.79-60.69-38.2-60.69-65.92,0-30.19,23.72-53.91,64.69-53.91,30.19,0,50.83,12.94,62.54,33.89l-17.87,12.32-5.24-1.23c-9.24-14.48-20.64-22.8-40.05-22.8-23.72,0-37.58,13.25-37.58,31.11,0,16.63,8.93,26.18,47.44,43.74,50.21,22.8,62.54,41.59,62.54,71.78,0,32.96-28.34,60.99-68.7,60.99-33.89,0-57.3-12.94-74.86-45.59Z"/></svg>