<svg width="472" height="259" viewBox="0 0 472 259" fill="none" xmlns="http://www.w3.org/2000/svg">
<path fill-rule="evenodd" clip-rule="evenodd" d="M256.238 237.297C256.022 237.48 255.807 237.659 255.593 237.833L275.748 192.011L276.743 192.555C276.743 192.555 282.155 179.281 297.173 179.281C297.367 179.295 297.584 179.308 297.823 179.322C301.73 179.558 311.386 180.139 317.36 190.994L319.554 195.923L347.299 258.148C347.381 258.343 347.467 258.536 347.554 258.727H451.999C463.045 258.727 471.999 249.773 471.999 238.727V20.7271C471.999 9.68136 463.045 0.727051 451.999 0.727051H447.951L435.798 31.3568L420.634 70.6926L401.373 26.33C397.229 16.8133 387.867 10.664 377.481 10.664H355.511L355.538 10.6022H217.159V10.6998C206.921 10.6998 197.692 16.845 193.607 26.3556L174.252 71.4891L158.596 30.8798L147.254 0.727051H0.652101L95.161 246.827C95.4044 247.454 95.6434 248.077 95.88 248.693C97.2674 252.307 98.5727 255.706 100.192 258.727H246.727C246.829 258.479 246.925 258.226 247.016 257.968C253.262 243.943 256.238 237.297 256.238 237.297Z" fill="white" fill-opacity="0.2"/>
</svg>
