<svg width="315" height="164" viewBox="0 0 315 164" fill="none" xmlns="http://www.w3.org/2000/svg">
<g opacity="0.5">
<mask id="mask0_7990_2837" style="mask-type:alpha" maskUnits="userSpaceOnUse" x="0" y="0" width="315" height="164">
<path fill-rule="evenodd" clip-rule="evenodd" d="M135.842 146.585C135.951 146.497 136.059 146.407 136.169 146.314C136.169 146.314 134.663 149.675 131.505 156.768C131.124 157.847 130.558 158.761 129.889 159.534C128.45 161.378 126.904 162.009 126.034 162.364C125.92 162.411 125.818 162.453 125.729 162.492C125.724 162.494 125.719 162.496 125.714 162.498C125.661 162.522 125.612 162.545 125.569 162.568C123.597 163.862 120.495 163.697 119.604 163.615H80.9308L81.0342 163.678C81.0342 163.678 75.0975 163.678 71.2535 163.706C70.6589 163.726 70.0895 163.732 69.5439 163.723C69.4395 163.724 69.3395 163.725 69.2442 163.727C68.364 163.727 67.5504 163.657 66.8003 163.534C59.0858 162.545 57.2838 157.852 55.0667 152.077C54.947 151.766 54.8262 151.451 54.7031 151.133L0.507722 10.0097C-1.36789 5.19019 2.1859 0 7.34384 0H62.6251C67.6103 0 72.1019 3.06468 73.9281 7.73586L86.7859 41.917L94.7036 62.4553L104.493 39.6288C106.559 34.8188 111.226 31.7108 116.404 31.7108V31.6615H186.39L186.377 31.6927H197.488C202.741 31.6927 207.476 34.8027 209.572 39.6159L219.313 62.0525L226.983 42.1582L240.645 7.72571C242.445 3.06067 246.933 0 251.939 0H307.154C312.309 0 315.835 5.18339 313.986 9.99653L263.9 138.619L257.513 155.082C257.356 155.688 257.046 156.309 256.752 156.897C256.674 157.051 256.598 157.204 256.526 157.353C254.603 161.228 250.312 163.869 245.108 163.721H240.793H196.206H195.466H195.417H192.803C192.803 163.721 191.767 163.672 190.657 163.449C190.631 163.436 190.597 163.43 190.56 163.423C190.528 163.418 190.494 163.411 190.46 163.4C190.386 163.375 190.288 163.351 190.189 163.326C190.14 163.314 190.103 163.301 190.066 163.289L190.066 163.289C190.046 163.282 190.026 163.276 190.005 163.269C189.986 163.264 189.965 163.258 189.942 163.252C189.93 163.252 189.912 163.246 189.893 163.24L189.893 163.24C189.874 163.233 189.856 163.227 189.844 163.227C188.808 162.931 187.23 162.289 185.503 160.956C185.491 160.956 185.485 160.95 185.479 160.944C185.473 160.938 185.466 160.932 185.454 160.932C185.368 160.858 185.288 160.796 185.207 160.734C185.127 160.673 185.047 160.611 184.961 160.537C183.728 159.525 182.84 158.315 182.223 156.859L168.192 125.389L167.082 122.896C164.06 117.406 159.177 117.112 157.201 116.993C157.08 116.985 156.97 116.979 156.872 116.972C149.277 116.972 146.539 123.685 146.539 123.685L146.036 123.41L135.842 146.585Z" fill="white" fill-opacity="0.2"/>
</mask>
<g mask="url(#mask0_7990_2837)">
<rect x="-115" y="-156" width="362" height="312" rx="20" fill="white"/>
</g>
</g>
</svg>
