<svg width="27" height="27" viewBox="0 0 27 27" fill="none" xmlns="http://www.w3.org/2000/svg">
<rect width="27" height="27" rx="4" fill="white"/>
<g clip-path="url(#clip0_1_19)">
<path d="M22.5 9.5H15.5V7.5H22.5V9.5ZM24.226 19.5C23.784 20.797 22.197 22.5 19.125 22.5C16.051 22.5 13.561 20.771 13.561 16.825C13.561 12.915 15.886 10.905 19.027 10.905C22.109 10.905 23.991 12.687 24.402 15.331C24.48 15.837 24.511 16.519 24.497 17.471H16.47C16.6 20.682 19.953 20.783 21.058 19.5H24.226ZM16.54 15.5H21.505C21.4 13.953 20.369 13.281 19.028 13.281C17.562 13.281 16.751 14.049 16.54 15.5ZM6.966 22.488H0.5V7.521H7.453C12.929 7.602 13.033 12.965 10.173 14.427C13.634 15.687 13.75 22.488 6.966 22.488ZM3.5 13.5H7.084C9.592 13.5 9.99 10.5 6.772 10.5H3.5V13.5ZM6.891 16.5H3.5V19.516H6.841C9.896 19.516 9.709 16.5 6.891 16.5Z" fill="black"/>
</g>
<defs>
<clipPath id="clip0_1_19">
<rect width="24" height="24" fill="white" transform="translate(1.5 1.5)"/>
</clipPath>
</defs>
</svg>
