<svg width="30" height="30" viewBox="0 0 30 30" fill="none" xmlns="http://www.w3.org/2000/svg">
<rect width="30" height="30" rx="6" fill="white"/>
<path d="M11.2358 9C11.7545 9 12.2337 9.04179 12.6736 9.16716C13.1124 9.25075 13.4735 9.42507 13.7941 9.63403C14.1159 9.84418 14.3533 10.1427 14.5153 10.526C14.6728 10.9081 14.7583 11.3749 14.7583 11.8836C14.7583 12.4758 14.639 12.9845 14.3578 13.3665C14.1159 13.7486 13.721 14.0901 13.2361 14.3421C13.9179 14.5522 14.4365 14.9343 14.7526 15.443C15.0688 15.9516 15.2713 16.5856 15.2713 17.3092C15.2713 17.9015 15.1532 18.4101 14.9507 18.8352C14.7486 19.263 14.4455 19.628 14.0709 19.8943C13.7109 20.151 13.271 20.36 12.7917 20.4865C12.3223 20.6181 11.8395 20.6887 11.354 20.6967L6 20.705V9H11.2358ZM10.9152 13.7498C11.354 13.7498 11.714 13.6245 11.9919 13.4095C12.2686 13.1946 12.3912 12.8161 12.3912 12.3504C12.3912 12.0925 12.3519 11.8418 12.2731 11.6734C12.1879 11.5028 12.0642 11.3572 11.9131 11.2495C11.7499 11.1551 11.5754 11.0844 11.3945 11.0394C11.1965 10.9976 10.994 10.9976 10.7566 10.9976H8.44129V13.7558C8.44129 13.7498 10.9152 13.7498 10.9152 13.7498ZM11.0333 18.7564C11.2752 18.7564 11.5126 18.7146 11.7151 18.6728C11.9131 18.631 12.1156 18.5462 12.2731 18.4149C12.4306 18.2835 12.5544 18.1582 12.6736 17.9492C12.7524 17.7391 12.8311 17.4824 12.8311 17.1838C12.8311 16.5916 12.6736 16.1665 12.3519 15.868C12.0312 15.6113 11.5913 15.4859 11.0727 15.4859H8.44129V18.7504H11.0345L11.0333 18.7564ZM18.7487 18.7146C19.0705 19.0549 19.5486 19.2232 20.1865 19.2232C20.6252 19.2232 21.0258 19.0967 21.3475 18.8818C21.6681 18.625 21.865 18.3731 21.9438 18.1176H23.9013C23.5795 19.1337 23.1003 19.8573 22.4635 20.3241C21.8268 20.748 21.0651 21 20.146 21C19.5582 21.0027 18.9753 20.8872 18.4281 20.6597C17.9356 20.4653 17.4961 20.1445 17.1489 19.7259C16.7786 19.3356 16.5037 18.8552 16.3479 18.3265C16.151 17.7761 16.0667 17.1838 16.0667 16.5021C16.0667 15.868 16.1454 15.2698 16.3479 14.7194C16.5504 14.1701 16.8272 13.7021 17.1883 13.2782C17.5483 12.8961 17.9882 12.5546 18.4675 12.3445C19.0018 12.1186 19.5719 12.0031 20.1471 12.0042C20.8289 12.0042 21.4263 12.1295 21.9449 12.428C22.4624 12.7266 22.864 13.0633 23.1847 13.5719C23.5053 14.0376 23.7427 14.588 23.9058 15.1815C23.9846 15.7737 24.0239 16.3707 23.9846 17.0477H18.1907C18.1907 17.7403 18.427 18.3731 18.7487 18.7146ZM21.2688 14.2585C20.9875 13.96 20.5465 13.7916 20.0279 13.7916C19.6679 13.7916 19.3911 13.8752 19.1492 14.0018C18.9073 14.1271 18.7487 14.3003 18.5912 14.4674C18.4442 14.6313 18.3463 14.8379 18.31 15.0609C18.2695 15.2698 18.2312 15.443 18.2312 15.6101H21.8268C21.748 14.9821 21.5466 14.557 21.2688 14.2585ZM17.7508 9.80716H22.2261V10.9498H17.7508V9.80716Z" fill="black"/>
</svg>
