<svg width="858" height="858" viewBox="0 0 858 858" fill="none" xmlns="http://www.w3.org/2000/svg">
<path d="M757.2 857H100.8C45.68 857 1 812.32 1 757.2V100.8C1 45.68 45.68 1 100.8 1H757.19C812.31 1 856.99 45.68 856.99 100.8V757.19C857 812.32 812.32 857 757.2 857Z" fill="black" stroke="white" stroke-miterlimit="10"/>
<path d="M132.5 150.131L362.57 457.761L131.05 707.871H183.16L385.86 488.891L549.63 707.871H726.95L483.93 382.941L699.43 150.131H647.32L460.65 351.801L309.82 150.131H132.5ZM209.13 188.521H290.59L650.31 669.491H568.85L209.13 188.521Z" fill="white"/>
</svg>
