<?xml version="1.0" encoding="utf-8"?>
<!-- Generator: Adobe Illustrator 26.4.1, SVG Export Plug-In . SVG Version: 6.00 Build 0)  -->
<svg version="1.1" id="a" xmlns="http://www.w3.org/2000/svg" xmlns:xlink="http://www.w3.org/1999/xlink" x="0px" y="0px"
	 viewBox="0 0 1000 521.6" style="enable-background:new 0 0 1000 521.6;" xml:space="preserve">
<style type="text/css">
	.st0{fill:#F9F7F7;}
</style>
<rect class="st0" width="1000" height="521.6"/>
<path d="M764.2,220.8h-20.5c-2.4,0-4.7-1-6.3-2.8l-8.3-9.4c-1.2-1.4-3-2.2-4.9-2.2s-3.7,0.8-4.9,2.2l-7.2,8.1
	c-2.3,2.6-5.7,4.2-9.2,4.2H590.4c-3.2,9.1-5.3,18.8-6.1,28.8h106.2c1.9,0,3.7-0.8,4.9-2.1l9.9-10.3c1.2-1.3,2.9-2,4.7-2h0.4
	c1.9,0,3.7,0.8,4.9,2.2l8.3,9.4c1.6,1.8,3.9,2.8,6.3,2.8h86.7c-0.8-10-2.9-19.6-6.1-28.8L764.2,220.8L764.2,220.8z"/>
<path d="M648.6,310c1.9,0,3.7-0.8,4.9-2.1l9.9-10.3c1.2-1.3,2.9-2,4.7-2h0.4c1.9,0,3.7,0.8,4.9,2.2l8.3,9.4c1.6,1.8,3.9,2.8,6.3,2.8
	h117.4c4.4-9.1,7.6-18.9,9.5-29.1H702.3c-2.4,0-4.7-1-6.3-2.8l-8.3-9.4c-1.2-1.4-3-2.2-4.9-2.2s-3.7,0.8-4.9,2.2l-7.2,8.1
	c-2.3,2.6-5.7,4.2-9.2,4.2h-75.6c1.9,10.2,5.1,20,9.5,29.1L648.6,310L648.6,310z"/>
<path d="M731.9,189.3c1.9,0,3.7-0.8,4.9-2.1l9.9-10.3c1.2-1.3,2.9-2,4.7-2h0.4c1.9,0,3.7,0.8,4.9,2.2l8.3,9.4
	c1.6,1.8,3.9,2.8,6.3,2.8h22.3c-21.3-28.3-55.1-46.6-93.2-46.6s-71.9,18.3-93.2,46.6L731.9,189.3L731.9,189.3z"/>
<path d="M687,338.8h-30.5c-2.4,0-4.7-1-6.3-2.8l-8.3-9.4c-1.2-1.4-3-2.2-4.9-2.2s-3.7,0.8-4.9,2.2l-7.2,8.1
	c-2.3,2.6-5.7,4.2-9.2,4.2h-0.5c21.3,22.8,51.6,37.1,85.2,37.1s63.9-14.3,85.2-37.1L687,338.8L687,338.8z"/>
<path d="M185.1,368.4l-23.7-57.6h-106l-23.7,57.6H4.3l104-218.1l104.3,218.1H185.1L185.1,368.4z M64.3,288.9h87.8l-44-92.9
	L64.3,288.9L64.3,288.9z"/>
<path d="M250.4,368.4V150.3h60.7c47.4,0,72.4,21.9,72.4,62.8s-26.5,62.2-72.7,62.2H276v93H250.4L250.4,368.4z M276,252.6h29
	c36.7,0,52.7-12,52.7-39.4s-16.3-40.1-52.7-40.1h-29C276,173.1,276,252.6,276,252.6z"/>
<path d="M476.3,173.7h-75.2v-23.4h175.9v23.4h-75.2v194.7h-25.6L476.3,173.7L476.3,173.7z"/>
<path d="M852.6,328.6l22-14.9l1.7,3.5c13.5,24.6,28.3,34.5,50.8,34.5c25,0,42.5-17.2,42.5-38.2c0-19.7-9.9-33-49.3-49.3
	c-45.3-18.8-60.7-38.2-60.7-65.9c0-30.2,23.7-53.9,64.7-53.9c30.2,0,50.8,12.9,62.5,33.9L969,190.6l-5.2-1.2
	c-9.2-14.5-20.6-22.8-40-22.8c-23.7,0-37.6,13.2-37.6,31.1c0,16.6,8.9,26.2,47.4,43.7c50.2,22.8,62.5,41.6,62.5,71.8
	c0,33-28.3,61-68.7,61C893.6,374.2,870.1,361.3,852.6,328.6L852.6,328.6z"/>
</svg>
