<svg width="60" height="32" viewBox="0 0 60 32" fill="none" xmlns="http://www.w3.org/2000/svg">
<path fill-rule="evenodd" clip-rule="evenodd" d="M57.9623 0H47.5313C46.5856 0 45.7377 0.579183 45.3976 1.46197L42.8166 7.97777L41.3677 11.7425L39.5275 7.49668C39.1315 6.58587 38.237 5.99734 37.2447 5.99734H35.3655L35.3674 5.99311H21.9548V6.00245C20.9625 6.00245 20.068 6.59098 19.672 7.50179L17.8312 11.7431L16.3829 7.98205L13.9557 1.5223C13.6109 0.639514 12.763 0.0603312 11.822 0.0603312H1.38632C0.412641 0.0603312 -0.258222 1.0412 0.0958445 1.95202L10.3265 28.6224C10.3497 28.6824 10.3725 28.7419 10.3951 28.8008C10.4634 28.9789 10.5296 29.1515 10.5989 29.3165L10.6107 29.3472C10.6402 29.4619 10.699 29.5795 10.7545 29.6907C10.7691 29.7199 10.7835 29.7488 10.7971 29.777C10.8576 29.8984 10.9322 30.0152 11.016 30.1226C11.016 30.1226 11.5425 31.0007 12.9168 31.0007C12.952 31.0002 12.9906 30.9997 13.032 30.9992C13.1872 31.0045 13.353 31.0033 13.5303 30.9953C14.2521 30.9914 15.1763 30.9914 15.1763 30.9914L15.1594 30.9812H22.5884C22.6761 30.9883 22.84 30.9964 23.0268 30.9812H23.0356C23.0356 30.9812 23.0394 30.9807 23.0467 30.9795C23.2677 30.9597 23.5178 30.9067 23.7112 30.7812C23.7337 30.7696 23.7639 30.7574 23.8004 30.7427C24.0552 30.6399 24.6132 30.4149 24.9378 29.433C25.4569 28.2664 25.7051 27.7116 25.7051 27.7116C25.702 27.7142 25.6989 27.7168 25.6958 27.7194L27.6169 23.404L27.6197 23.4055C27.6197 23.4055 28.1368 22.135 29.5717 22.135C29.5902 22.1364 29.611 22.1376 29.6338 22.139C30.0071 22.1615 30.9297 22.2172 31.5005 23.256L31.7101 23.7278L34.3609 29.6831C34.4774 29.9587 34.6451 30.1876 34.8781 30.3791C34.8944 30.3931 34.9095 30.4048 34.9247 30.4164C34.9398 30.4281 34.9549 30.4398 34.9712 30.4538C34.9736 30.4538 34.9747 30.455 34.9759 30.4561C34.9771 30.4573 34.9782 30.4585 34.9806 30.4585C35.3067 30.7107 35.6048 30.8321 35.8005 30.8882C35.8052 30.8882 35.8145 30.8929 35.8191 30.8929C35.8285 30.8952 35.8354 30.8975 35.8424 30.8999C35.8494 30.9022 35.8564 30.9045 35.8657 30.9069L35.8658 30.9069C35.8844 30.9115 35.903 30.9162 35.917 30.9209C35.9206 30.9221 35.9243 30.923 35.9279 30.9238C35.9306 30.9243 35.9332 30.9248 35.9357 30.9253C35.9428 30.9265 35.9492 30.9277 35.9542 30.9302C36.1639 30.9723 36.3596 30.9816 36.3596 30.9816H36.8534H36.8627H37.0025H45.4255H46.2408C47.2238 31.0096 48.0344 30.5098 48.3978 29.7765C48.4055 29.7606 48.4134 29.7445 48.4215 29.7282C48.4277 29.7156 48.434 29.703 48.4404 29.6903L48.4404 29.6902C48.4959 29.579 48.5547 29.4614 48.5842 29.3468L49.7908 26.2314L59.2527 1.89169C59.6022 0.980874 58.9359 0 57.9623 0Z" fill="white"/>
</svg>
