<svg width="159" height="18" viewBox="0 0 159 18" fill="none" xmlns="http://www.w3.org/2000/svg">
<path d="M18.5461 1.20662L22.7237 12.5613L27.2466 1.20662H31.8289L25.2589 17.5602H20.3552L16.0823 6.56261L11.8213 17.5602H6.91761L0.335693 1.20662H4.92994L9.35756 12.3233L13.6305 1.20662H18.5461Z" fill="white"/>
<path d="M48.5158 17.5602V15.9534C47.9524 16.2629 47.3454 16.5367 46.6948 16.7747C46.0521 17.0127 45.3816 17.2151 44.6833 17.3817C43.985 17.5483 43.263 17.6713 42.5171 17.7507C41.7792 17.838 41.0333 17.8816 40.2795 17.8816C39.3987 17.8816 38.5457 17.7983 37.7205 17.6317C36.9032 17.465 36.1772 17.1952 35.5424 16.8223C34.9076 16.4494 34.3958 15.9614 34.007 15.3583C33.6262 14.7553 33.4357 14.0174 33.4357 13.1445C33.4357 12.0416 33.7372 11.1251 34.3403 10.3951C34.9433 9.65718 35.8638 9.05414 37.1016 8.58598C38.3394 8.11783 39.9026 7.7568 41.7911 7.50288C43.6875 7.24897 45.9291 7.0506 48.5158 6.90777V6.56261C48.5158 6.29283 48.4444 6.02701 48.3016 5.76516C48.1588 5.49538 47.8969 5.2613 47.516 5.06293C47.1431 4.85663 46.6273 4.68999 45.9687 4.56304C45.3181 4.43608 44.4849 4.3726 43.4693 4.3726C42.6679 4.3726 41.8744 4.41624 41.0888 4.50353C40.3112 4.58288 39.5574 4.69396 38.8274 4.83679C38.1054 4.97962 37.419 5.14625 36.7683 5.33668C36.1177 5.52712 35.5265 5.72549 34.9949 5.93179V2.00406C35.5504 1.86124 36.1732 1.72238 36.8636 1.58749C37.5539 1.4526 38.272 1.33754 39.0179 1.24232C39.7637 1.13917 40.5175 1.05982 41.2793 1.00428C42.041 0.9408 42.771 0.909061 43.4693 0.909061C44.842 0.909061 46.1076 1.02412 47.2661 1.25423C48.4246 1.4764 49.4204 1.82553 50.2535 2.30162C51.0946 2.77771 51.7492 3.38075 52.2174 4.11075C52.6935 4.84076 52.9315 5.70962 52.9315 6.71734V17.5602H48.5158ZM48.5158 10.0976C46.8178 10.161 45.3736 10.2523 44.1834 10.3713C43.0011 10.4903 42.0172 10.6292 41.2317 10.7879C40.4461 10.9466 39.8272 11.1172 39.3749 11.2997C38.9306 11.4822 38.5973 11.6687 38.3751 11.8591C38.153 12.0495 38.0141 12.24 37.9586 12.4304C37.911 12.6208 37.8871 12.7954 37.8871 12.9541C37.8871 13.1445 37.9387 13.331 38.0419 13.5135C38.145 13.6881 38.3236 13.8428 38.5775 13.9777C38.8393 14.1126 39.1845 14.2197 39.613 14.299C40.0414 14.3784 40.581 14.4181 41.2317 14.4181C41.9537 14.4181 42.6599 14.3625 43.3503 14.2514C44.0406 14.1403 44.6952 13.9896 45.3141 13.7991C45.933 13.6008 46.5123 13.3707 47.0518 13.1088C47.5993 12.839 48.0873 12.5534 48.5158 12.2519V10.0976Z" fill="white"/>
<path d="M62.3938 10.5617C62.3938 11.2441 62.4573 11.8035 62.5842 12.24C62.7112 12.6684 62.9175 13.0096 63.2031 13.2635C63.4888 13.5175 63.8578 13.692 64.31 13.7872C64.7703 13.8825 65.3336 13.9301 66.0002 13.9301H74.3793V17.5602H65.0956C63.8102 17.5602 62.7151 17.4571 61.8106 17.2508C60.9139 17.0365 60.18 16.7112 59.6087 16.2748C59.0374 15.8305 58.6208 15.2711 58.3589 14.5966C58.105 13.9221 57.9781 13.1207 57.9781 12.1924V1.20662H62.3938V10.5617Z" fill="white"/>
<path d="M82.3419 10.5617C82.3419 11.2441 82.4054 11.8035 82.5323 12.24C82.6593 12.6684 82.8656 13.0096 83.1512 13.2635C83.4369 13.5175 83.8059 13.692 84.2581 13.7872C84.7184 13.8825 85.2817 13.9301 85.9482 13.9301H94.3274V17.5602H85.0437C83.7582 17.5602 82.6632 17.4571 81.7587 17.2508C80.862 17.0365 80.1281 16.7112 79.5568 16.2748C78.9855 15.8305 78.5689 15.2711 78.307 14.5966C78.0531 13.9221 77.9262 13.1207 77.9262 12.1924V1.20662H82.3419V10.5617Z" fill="white"/>
<path d="M115.989 16.7509C114.648 17.1952 113.307 17.5126 111.966 17.7031C110.633 17.9014 109.269 18.0006 107.872 18.0006C106.087 18.0006 104.496 17.8102 103.099 17.4293C101.711 17.0405 100.54 16.4811 99.5882 15.7511C98.636 15.0211 97.91 14.1284 97.4101 13.0731C96.9102 12.0178 96.6602 10.8236 96.6602 9.49055C96.6602 8.25272 96.9102 7.10614 97.4101 6.05081C97.9179 4.98755 98.632 4.06711 99.5525 3.2895C100.481 2.50396 101.6 1.89298 102.909 1.45656C104.218 1.01221 105.678 0.790039 107.289 0.790039C108.773 0.790039 110.13 0.992377 111.359 1.39705C112.597 1.79379 113.657 2.38493 114.537 3.17048C115.426 3.95603 116.112 4.92407 116.596 6.07462C117.088 7.22516 117.334 8.55028 117.334 10.05V11.145H101.219C101.362 11.6607 101.596 12.1328 101.921 12.5613C102.254 12.9898 102.703 13.3548 103.266 13.6563C103.829 13.9578 104.52 14.1919 105.337 14.3586C106.162 14.5252 107.146 14.6085 108.289 14.6085C109.098 14.6085 109.892 14.5609 110.669 14.4657C111.447 14.3625 112.173 14.2316 112.847 14.0729C113.522 13.9063 114.129 13.7238 114.668 13.5254C115.216 13.327 115.656 13.1287 115.989 12.9303V16.7509ZM112.942 7.90756C112.903 7.50288 112.78 7.08631 112.573 6.65783C112.375 6.22141 112.058 5.82864 111.621 5.47951C111.185 5.13038 110.614 4.84472 109.907 4.62255C109.201 4.39244 108.32 4.27738 107.265 4.27738C106.273 4.27738 105.416 4.40037 104.694 4.64635C103.972 4.89233 103.365 5.19782 102.873 5.56282C102.389 5.92782 102.012 6.3206 101.742 6.74114C101.473 7.16169 101.298 7.55049 101.219 7.90756H112.942Z" fill="white"/>
<path d="M136.414 5.81277C136.104 5.66201 135.695 5.49141 135.188 5.30097C134.68 5.11054 134.105 4.93201 133.462 4.76538C132.819 4.59081 132.121 4.44798 131.367 4.3369C130.613 4.21787 129.84 4.15836 129.046 4.15836C128.411 4.15836 127.868 4.1782 127.416 4.21787C126.971 4.25755 126.594 4.30912 126.285 4.3726C125.983 4.43608 125.741 4.51146 125.559 4.59874C125.384 4.67809 125.249 4.76141 125.154 4.84869C125.059 4.93597 124.995 5.02326 124.964 5.11054C124.94 5.19782 124.928 5.27717 124.928 5.34858C124.928 5.58663 125.047 5.7969 125.285 5.9794C125.523 6.15397 125.848 6.31266 126.261 6.45549C126.674 6.59038 127.154 6.7213 127.701 6.84826C128.249 6.96728 128.828 7.09424 129.439 7.22913C130.058 7.35609 130.693 7.49892 131.343 7.65761C132.002 7.80837 132.637 7.98691 133.248 8.19321C133.867 8.39952 134.45 8.64153 134.997 8.91924C135.545 9.18903 136.025 9.50642 136.437 9.87142C136.85 10.2364 137.175 10.657 137.413 11.1331C137.651 11.6091 137.77 12.1527 137.77 12.7637C137.77 13.5492 137.632 14.2237 137.354 14.787C137.076 15.3504 136.703 15.8265 136.235 16.2153C135.775 16.6041 135.239 16.9175 134.628 17.1556C134.017 17.3857 133.375 17.5642 132.7 17.6912C132.034 17.8181 131.355 17.9014 130.665 17.9411C129.982 17.9808 129.332 18.0006 128.713 18.0006C127.094 18.0006 125.594 17.8657 124.214 17.596C122.841 17.3341 121.627 17.0048 120.572 16.6081V12.7041C121.659 13.3072 122.897 13.7793 124.285 14.1205C125.682 14.4617 127.174 14.6323 128.76 14.6323C129.697 14.6323 130.459 14.5847 131.046 14.4895C131.641 14.3863 132.105 14.2594 132.438 14.1086C132.772 13.9499 132.998 13.7793 133.117 13.5968C133.236 13.4143 133.295 13.2397 133.295 13.0731C133.295 12.8113 133.176 12.5851 132.938 12.3947C132.7 12.1963 132.375 12.0257 131.962 11.8829C131.55 11.7321 131.07 11.5972 130.522 11.4782C129.975 11.3513 129.391 11.2283 128.772 11.1093C128.161 10.9823 127.531 10.8474 126.88 10.7046C126.229 10.5617 125.594 10.3951 124.976 10.2047C124.365 10.0063 123.785 9.78017 123.238 9.52626C122.69 9.26441 122.21 8.95892 121.798 8.60979C121.385 8.25272 121.06 7.84408 120.822 7.38386C120.584 6.91571 120.465 6.37614 120.465 5.76516C120.465 5.04309 120.592 4.42021 120.846 3.89651C121.099 3.37282 121.441 2.92847 121.869 2.56347C122.306 2.19053 122.805 1.88901 123.369 1.6589C123.94 1.42879 124.539 1.25026 125.166 1.1233C125.793 0.996344 126.428 0.909061 127.07 0.861452C127.713 0.813843 128.324 0.790039 128.903 0.790039C129.538 0.790039 130.189 0.821778 130.855 0.885257C131.53 0.948735 132.192 1.03999 132.843 1.15901C133.494 1.27009 134.12 1.40102 134.723 1.55178C135.334 1.70254 135.898 1.86124 136.414 2.02787V5.81277Z" fill="white"/>
<path d="M157.028 5.81277C156.719 5.66201 156.31 5.49141 155.802 5.30097C155.294 5.11054 154.719 4.93201 154.076 4.76538C153.434 4.59081 152.735 4.44798 151.982 4.3369C151.228 4.21787 150.454 4.15836 149.661 4.15836C149.026 4.15836 148.482 4.1782 148.03 4.21787C147.586 4.25755 147.209 4.30912 146.899 4.3726C146.598 4.43608 146.356 4.51146 146.173 4.59874C145.999 4.67809 145.864 4.76141 145.769 4.84869C145.674 4.93597 145.61 5.02326 145.578 5.11054C145.554 5.19782 145.543 5.27717 145.543 5.34858C145.543 5.58663 145.662 5.7969 145.9 5.9794C146.138 6.15397 146.463 6.31266 146.876 6.45549C147.288 6.59038 147.768 6.7213 148.316 6.84826C148.863 6.96728 149.443 7.09424 150.054 7.22913C150.672 7.35609 151.307 7.49892 151.958 7.65761C152.616 7.80837 153.251 7.98691 153.862 8.19321C154.481 8.39952 155.064 8.64153 155.612 8.91924C156.159 9.18903 156.639 9.50642 157.052 9.87142C157.465 10.2364 157.79 10.657 158.028 11.1331C158.266 11.6091 158.385 12.1527 158.385 12.7637C158.385 13.5492 158.246 14.2237 157.968 14.787C157.691 15.3504 157.318 15.8265 156.85 16.2153C156.389 16.6041 155.854 16.9175 155.243 17.1556C154.632 17.3857 153.989 17.5642 153.315 17.6912C152.648 17.8181 151.97 17.9014 151.279 17.9411C150.597 17.9808 149.946 18.0006 149.327 18.0006C147.709 18.0006 146.209 17.8657 144.828 17.596C143.456 17.3341 142.242 17.0048 141.186 16.6081V12.7041C142.273 13.3072 143.511 13.7793 144.9 14.1205C146.296 14.4617 147.788 14.6323 149.375 14.6323C150.311 14.6323 151.073 14.5847 151.66 14.4895C152.255 14.3863 152.72 14.2594 153.053 14.1086C153.386 13.9499 153.612 13.7793 153.731 13.5968C153.85 13.4143 153.91 13.2397 153.91 13.0731C153.91 12.8113 153.791 12.5851 153.553 12.3947C153.315 12.1963 152.989 12.0257 152.577 11.8829C152.164 11.7321 151.684 11.5972 151.137 11.4782C150.589 11.3513 150.006 11.2283 149.387 11.1093C148.776 10.9823 148.145 10.8474 147.495 10.7046C146.844 10.5617 146.209 10.3951 145.59 10.2047C144.979 10.0063 144.4 9.78017 143.852 9.52626C143.305 9.26441 142.825 8.95892 142.412 8.60979C142 8.25272 141.674 7.84408 141.436 7.38386C141.198 6.91571 141.079 6.37614 141.079 5.76516C141.079 5.04309 141.206 4.42021 141.46 3.89651C141.714 3.37282 142.055 2.92847 142.484 2.56347C142.92 2.19053 143.42 1.88901 143.983 1.6589C144.555 1.42879 145.154 1.25026 145.781 1.1233C146.407 0.996344 147.042 0.909061 147.685 0.861452C148.328 0.813843 148.939 0.790039 149.518 0.790039C150.153 0.790039 150.803 0.821778 151.47 0.885257C152.144 0.948735 152.807 1.03999 153.458 1.15901C154.108 1.27009 154.735 1.40102 155.338 1.55178C155.949 1.70254 156.512 1.86124 157.028 2.02787V5.81277Z" fill="white"/>
</svg>
