<svg width="169" height="89" viewBox="0 0 169 89" fill="none" xmlns="http://www.w3.org/2000/svg">
<g clip-path="url(#clip0_3865_3593)">
<path d="M73.1738 78.8943C68.4919 82.857 66.4361 78.8943 66.4361 78.8943L55.0163 44.4931L46.6338 22.7248L39.7236 4.33406C38.7421 1.82079 36.3282 0.171875 33.649 0.171875H3.93901C1.16696 0.171875 -0.742963 2.96439 0.265054 5.55745L29.3914 81.4874C30.9565 85.5299 31.8584 88.7479 39.1798 88.2027H65.5739C65.5739 88.2027 69.5662 87.6442 70.6671 84.5192C72.3648 80.7028 73.1738 78.8943 73.1738 78.8943Z" fill="#7667AE"/>
<path d="M73.1738 78.8943C68.4919 82.857 66.4361 78.8943 66.4361 78.8943L55.0163 44.4931L46.6338 22.7248L39.7236 4.33406C38.7421 1.82079 36.3282 0.171875 33.649 0.171875H3.93901C1.16696 0.171875 -0.742963 2.96439 0.265054 5.55745L29.3914 81.4874C30.9565 85.5299 31.8584 88.7479 39.1798 88.2027H65.5739C65.5739 88.2027 69.5662 87.6442 70.6671 84.5192C72.3648 80.7028 73.1738 78.8943 73.1738 78.8943Z" fill="url(#paint0_linear_3865_3593)"/>
<path d="M165.01 0H135.313C132.621 0 130.207 1.64892 129.238 4.16218L121.89 22.7125L117.766 33.4304L112.527 21.3428C111.399 18.7498 108.853 17.0743 106.027 17.0743H67.8157L83.5195 52.3531L81.981 52.6323C81.981 52.6323 77.3123 55.877 76.9144 56.6881C76.5297 57.486 75.6013 60.6509 75.8268 61.7413C76.0655 62.8317 77.7765 66.1694 77.7765 66.1694L78.6253 66.6348C78.6253 66.6348 80.0976 63.0179 84.1827 63.0179C85.0979 63.0843 87.9495 63.071 89.6737 66.2093L90.2706 67.5524L97.8174 84.507C98.149 85.2915 98.6265 85.9431 99.2897 86.4883C99.3825 86.5681 99.4621 86.6213 99.5549 86.7011C99.5682 86.7011 99.5682 86.7144 99.5815 86.7144C100.51 87.4324 101.359 87.7782 101.916 87.9378C101.929 87.9378 101.956 87.9511 101.969 87.9511C102.022 87.9644 102.048 87.9777 102.102 87.991C102.155 88.0042 102.208 88.0175 102.247 88.0308C102.287 88.0441 102.327 88.0442 102.354 88.0574C102.95 88.1771 103.507 88.2037 103.507 88.2037H104.913H104.94C105.059 88.2037 105.179 88.2037 105.338 88.2037H129.318H131.639C134.438 88.2835 136.745 86.8606 137.78 84.7729C137.966 84.3873 138.204 83.9618 138.311 83.5495L141.746 74.6799L168.684 5.38557C169.678 2.79252 167.782 0 165.01 0Z" fill="url(#paint1_linear_3865_3593)"/>
<path d="M66.4761 78.8273C66.4761 78.8273 68.532 82.79 73.2139 78.8273L100.735 17.0195H62.5369C59.7118 17.0195 57.1653 18.695 56.0379 21.2881L50.7988 33.3757L66.4761 78.8273Z" fill="#B0B0B0"/>
<path d="M62.4969 17.0891C59.6718 17.0891 57.1252 18.7646 55.9978 21.3577L38.1984 62.3678L33.1318 73.7506C32.4951 74.841 31.2484 75.3464 29.9486 75.3464C28.6487 75.3464 27.1765 74.7347 26.447 73.7772L30.2006 83.551C30.3067 83.9633 30.5454 84.3888 30.7311 84.7744C30.9035 85.1202 31.1157 85.4526 31.3545 85.7584C31.3545 85.7584 32.8532 88.2584 36.7659 88.2584C38.5167 88.2318 43.1987 88.2318 43.1987 88.2318L43.1324 88.1919H63.1335C63.2927 88.1919 63.4121 88.1919 63.5314 88.1919H63.5579H64.1813C64.566 88.2318 66.3698 88.3648 67.4972 87.6334C68.0144 87.3675 69.9774 86.9818 71.0252 83.684L100.682 17.0625H62.4969V17.0891Z" fill="url(#paint2_linear_3865_3593)"/>
</g>
<defs>
<linearGradient id="paint0_linear_3865_3593" x1="24.2263" y1="32.6156" x2="63.9043" y2="81.7389" gradientUnits="userSpaceOnUse">
<stop stop-color="#19A3E1"/>
<stop offset="1" stop-color="#003393"/>
</linearGradient>
<linearGradient id="paint1_linear_3865_3593" x1="161.298" y1="26.541" x2="64.6612" y2="55.1552" gradientUnits="userSpaceOnUse">
<stop stop-color="#19A3E1"/>
<stop offset="1" stop-color="#0A5AA2"/>
</linearGradient>
<linearGradient id="paint2_linear_3865_3593" x1="77.1429" y1="17.2692" x2="54.0584" y2="96.5338" gradientUnits="userSpaceOnUse">
<stop stop-color="#8FC5BE"/>
<stop offset="1" stop-color="#1BA0DA"/>
</linearGradient>
<clipPath id="clip0_3865_3593">
<rect width="168.949" height="88.2569" fill="white"/>
</clipPath>
</defs>
</svg>
