<svg width="169" height="124" viewBox="0 0 169 124" fill="none" xmlns="http://www.w3.org/2000/svg">
<g clip-path="url(#clip0_3829_3722)">
<path d="M73.1738 78.8943C68.4919 82.857 66.4361 78.8943 66.4361 78.8943L55.0163 44.4931L46.6338 22.7248L39.7236 4.33406C38.7421 1.82079 36.3282 0.171875 33.649 0.171875H3.93901C1.16696 0.171875 -0.742963 2.96439 0.265054 5.55745L29.3914 81.4874C30.9565 85.5299 31.8584 88.7479 39.1798 88.2027H65.5739C65.5739 88.2027 69.5662 87.6442 70.6671 84.5192C72.3648 80.7028 73.1738 78.8943 73.1738 78.8943Z" fill="#7667AE"/>
<path d="M73.1738 78.8943C68.4919 82.857 66.4361 78.8943 66.4361 78.8943L55.0163 44.4931L46.6338 22.7248L39.7236 4.33406C38.7421 1.82079 36.3282 0.171875 33.649 0.171875H3.93901C1.16696 0.171875 -0.742963 2.96439 0.265054 5.55745L29.3914 81.4874C30.9565 85.5299 31.8584 88.7479 39.1798 88.2027H65.5739C65.5739 88.2027 69.5662 87.6442 70.6671 84.5192C72.3648 80.7028 73.1738 78.8943 73.1738 78.8943Z" fill="url(#paint0_linear_3829_3722)"/>
<path d="M165.01 0H135.314C132.621 0 130.207 1.64892 129.239 4.16218L121.891 22.7125L117.766 33.4304L112.527 21.3428C111.4 18.7498 108.853 17.0743 106.028 17.0743H67.8164L83.5202 52.3531L81.9817 52.6323C81.9817 52.6323 77.313 55.877 76.9151 56.6881C76.5304 57.486 75.602 60.6509 75.8275 61.7413C76.0662 62.8317 77.7772 66.1694 77.7772 66.1694L78.6261 66.6348C78.6261 66.6348 80.0983 63.0179 84.1834 63.0179C85.0986 63.0843 87.9502 63.071 89.6745 66.2093L90.2713 67.5524L97.8182 84.507C98.1498 85.2915 98.6272 85.9431 99.2904 86.4883C99.3832 86.5681 99.4628 86.6213 99.5557 86.7011C99.5689 86.7011 99.5689 86.7144 99.5822 86.7144C100.511 87.4324 101.359 87.7782 101.917 87.9378C101.93 87.9378 101.956 87.9511 101.97 87.9511C102.023 87.9644 102.049 87.9777 102.102 87.991C102.155 88.0042 102.208 88.0175 102.248 88.0308C102.288 88.0441 102.328 88.0442 102.354 88.0574C102.951 88.1771 103.508 88.2037 103.508 88.2037H104.914H104.941C105.06 88.2037 105.179 88.2037 105.339 88.2037H129.319H131.64C134.438 88.2835 136.746 86.8606 137.781 84.7729C137.966 84.3873 138.205 83.9618 138.311 83.5495L141.746 74.6799L168.684 5.38557C169.679 2.79252 167.782 0 165.01 0Z" fill="url(#paint1_linear_3829_3722)"/>
<path d="M66.4761 78.8273C66.4761 78.8273 68.532 82.79 73.2139 78.8273L100.735 17.0195H62.5369C59.7118 17.0195 57.1653 18.695 56.0379 21.2881L50.7988 33.3757L66.4761 78.8273Z" fill="#B0B0B0"/>
<path d="M62.4971 17.0886C59.672 17.0886 57.1255 18.7641 55.9981 21.3572L38.1986 62.3673L33.132 73.7501C32.4954 74.8405 31.2486 75.3459 29.9488 75.3459C28.649 75.3459 27.1768 74.7342 26.4473 73.7767L30.2008 83.5505C30.3069 83.9628 30.5456 84.3883 30.7313 84.7739C30.9038 85.1197 31.116 85.4521 31.3547 85.758C31.3547 85.758 32.8535 88.2579 36.7662 88.2579C38.5169 88.2313 43.1989 88.2313 43.1989 88.2313L43.1326 88.1914H63.1338C63.2929 88.1914 63.4123 88.1914 63.5317 88.1914H63.5582H64.1816C64.5662 88.2313 66.37 88.3643 67.4974 87.6329C68.0147 87.367 69.9777 86.9814 71.0255 83.6835L100.682 17.062H62.4971V17.0886Z" fill="url(#paint2_linear_3829_3722)"/>
</g>
<path d="M22.5463 107.206L26.724 118.561L31.2468 107.206H35.8292L29.2592 123.56H24.3554L20.0826 112.562L15.8216 123.56H10.9179L4.33594 107.206H8.93019L13.3578 118.323L17.6307 107.206H22.5463Z" fill="white"/>
<path d="M52.5161 123.56V121.953C51.9527 122.262 51.3457 122.536 50.695 122.774C50.0523 123.012 49.3818 123.215 48.6836 123.381C47.9853 123.548 47.2632 123.671 46.5174 123.75C45.7794 123.837 45.0335 123.881 44.2797 123.881C43.399 123.881 42.546 123.798 41.7208 123.631C40.9035 123.465 40.1774 123.195 39.5427 122.822C38.9079 122.449 38.3961 121.961 38.0073 121.358C37.6264 120.755 37.436 120.017 37.436 119.144C37.436 118.041 37.7375 117.125 38.3405 116.395C38.9436 115.657 39.864 115.054 41.1018 114.585C42.3397 114.117 43.9028 113.756 45.7913 113.502C47.6877 113.248 49.9293 113.05 52.5161 112.907V112.562C52.5161 112.292 52.4446 112.027 52.3018 111.765C52.159 111.495 51.8971 111.261 51.5163 111.062C51.1433 110.856 50.6276 110.69 49.969 110.563C49.3183 110.436 48.4852 110.372 47.4695 110.372C46.6681 110.372 45.8746 110.416 45.0891 110.503C44.3115 110.582 43.5577 110.693 42.8277 110.836C42.1056 110.979 41.4192 111.146 40.7686 111.336C40.1179 111.527 39.5268 111.725 38.9952 111.931V108.004C39.5506 107.861 40.1735 107.722 40.8638 107.587C41.5541 107.452 42.2722 107.337 43.0181 107.242C43.764 107.139 44.5178 107.059 45.2795 107.004C46.0413 106.94 46.7713 106.909 47.4695 106.909C48.8422 106.909 50.1078 107.024 51.2663 107.254C52.4248 107.476 53.4206 107.825 54.2538 108.301C55.0949 108.777 55.7495 109.38 56.2176 110.11C56.6937 110.84 56.9318 111.709 56.9318 112.717V123.56H52.5161ZM52.5161 116.097C50.818 116.161 49.3739 116.252 48.1837 116.371C47.0014 116.49 46.0175 116.629 45.2319 116.787C44.4464 116.946 43.8275 117.117 43.3752 117.299C42.9308 117.482 42.5976 117.668 42.3754 117.859C42.1532 118.049 42.0143 118.239 41.9588 118.43C41.9112 118.62 41.8874 118.795 41.8874 118.954C41.8874 119.144 41.939 119.331 42.0421 119.513C42.1453 119.688 42.3238 119.842 42.5777 119.977C42.8396 120.112 43.1847 120.219 43.6132 120.299C44.0417 120.378 44.5813 120.418 45.2319 120.418C45.954 120.418 46.6602 120.362 47.3505 120.251C48.0408 120.14 48.6955 119.989 49.3144 119.799C49.9333 119.6 50.5125 119.37 51.0521 119.108C51.5996 118.839 52.0876 118.553 52.5161 118.251V116.097Z" fill="white"/>
<path d="M66.394 116.561C66.394 117.244 66.4575 117.803 66.5845 118.239C66.7114 118.668 66.9177 119.009 67.2034 119.263C67.489 119.517 67.858 119.692 68.3103 119.787C68.7705 119.882 69.3339 119.93 70.0004 119.93H78.3796V123.56H69.0958C67.8104 123.56 66.7154 123.457 65.8108 123.25C64.9142 123.036 64.1802 122.711 63.6089 122.274C63.0376 121.83 62.621 121.271 62.3592 120.596C62.1053 119.922 61.9783 119.12 61.9783 118.192V107.206H66.394V116.561Z" fill="white"/>
<path d="M86.3421 116.561C86.3421 117.244 86.4056 117.803 86.5326 118.239C86.6595 118.668 86.8658 119.009 87.1515 119.263C87.4371 119.517 87.8061 119.692 88.2584 119.787C88.7186 119.882 89.282 119.93 89.9485 119.93H98.3276V123.56H89.0439C87.7585 123.56 86.6635 123.457 85.7589 123.25C84.8623 123.036 84.1283 122.711 83.557 122.274C82.9857 121.83 82.5691 121.271 82.3073 120.596C82.0534 119.922 81.9264 119.12 81.9264 118.192V107.206H86.3421V116.561Z" fill="white"/>
<path d="M119.99 122.75C118.649 123.195 117.308 123.512 115.967 123.703C114.634 123.901 113.269 124 111.872 124C110.087 124 108.496 123.81 107.1 123.429C105.711 123.04 104.541 122.481 103.588 121.751C102.636 121.021 101.91 120.128 101.41 119.073C100.91 118.017 100.66 116.823 100.66 115.49C100.66 114.252 100.91 113.106 101.41 112.05C101.918 110.987 102.632 110.067 103.553 109.289C104.481 108.503 105.6 107.892 106.909 107.456C108.218 107.012 109.678 106.79 111.289 106.79C112.773 106.79 114.13 106.992 115.36 107.397C116.598 107.793 117.657 108.384 118.538 109.17C119.426 109.956 120.113 110.924 120.597 112.074C121.089 113.225 121.335 114.55 121.335 116.049V117.144H105.219C105.362 117.66 105.596 118.132 105.921 118.561C106.255 118.989 106.703 119.354 107.266 119.656C107.83 119.957 108.52 120.191 109.337 120.358C110.162 120.525 111.146 120.608 112.289 120.608C113.098 120.608 113.892 120.56 114.669 120.465C115.447 120.362 116.173 120.231 116.847 120.072C117.522 119.906 118.129 119.723 118.669 119.525C119.216 119.327 119.656 119.128 119.99 118.93V122.75ZM116.943 113.907C116.903 113.502 116.78 113.086 116.574 112.657C116.375 112.221 116.058 111.828 115.622 111.479C115.185 111.13 114.614 110.844 113.908 110.622C113.201 110.392 112.321 110.277 111.265 110.277C110.273 110.277 109.417 110.4 108.694 110.646C107.972 110.892 107.365 111.197 106.873 111.562C106.389 111.927 106.013 112.32 105.743 112.741C105.473 113.161 105.298 113.55 105.219 113.907H116.943Z" fill="white"/>
<path d="M140.414 111.812C140.104 111.662 139.696 111.491 139.188 111.3C138.68 111.11 138.105 110.932 137.462 110.765C136.819 110.59 136.121 110.447 135.367 110.336C134.614 110.217 133.84 110.158 133.046 110.158C132.412 110.158 131.868 110.178 131.416 110.217C130.971 110.257 130.595 110.309 130.285 110.372C129.984 110.436 129.742 110.511 129.559 110.598C129.384 110.678 129.25 110.761 129.154 110.848C129.059 110.935 128.996 111.023 128.964 111.11C128.94 111.197 128.928 111.277 128.928 111.348C128.928 111.586 129.047 111.796 129.285 111.979C129.523 112.153 129.849 112.312 130.261 112.455C130.674 112.59 131.154 112.721 131.701 112.848C132.249 112.967 132.828 113.094 133.439 113.229C134.058 113.356 134.693 113.498 135.344 113.657C136.002 113.808 136.637 113.986 137.248 114.193C137.867 114.399 138.45 114.641 138.997 114.919C139.545 115.189 140.025 115.506 140.438 115.871C140.85 116.236 141.176 116.656 141.414 117.133C141.652 117.609 141.771 118.152 141.771 118.763C141.771 119.549 141.632 120.223 141.354 120.787C141.076 121.35 140.703 121.826 140.235 122.215C139.775 122.604 139.239 122.917 138.629 123.155C138.018 123.385 137.375 123.564 136.7 123.691C136.034 123.818 135.355 123.901 134.665 123.941C133.983 123.98 133.332 124 132.713 124C131.094 124 129.595 123.865 128.214 123.595C126.841 123.334 125.627 123.004 124.572 122.608V118.704C125.659 119.307 126.897 119.779 128.285 120.12C129.682 120.461 131.174 120.632 132.761 120.632C133.697 120.632 134.459 120.584 135.046 120.489C135.641 120.386 136.105 120.259 136.439 120.108C136.772 119.949 136.998 119.779 137.117 119.596C137.236 119.414 137.295 119.239 137.295 119.073C137.295 118.811 137.176 118.585 136.938 118.394C136.7 118.196 136.375 118.025 135.962 117.882C135.55 117.732 135.07 117.597 134.522 117.478C133.975 117.351 133.392 117.228 132.773 117.109C132.162 116.982 131.531 116.847 130.88 116.704C130.23 116.561 129.595 116.395 128.976 116.204C128.365 116.006 127.786 115.78 127.238 115.526C126.691 115.264 126.211 114.958 125.798 114.609C125.385 114.252 125.06 113.844 124.822 113.383C124.584 112.915 124.465 112.376 124.465 111.765C124.465 111.043 124.592 110.42 124.846 109.896C125.1 109.372 125.441 108.928 125.869 108.563C126.306 108.19 126.806 107.889 127.369 107.658C127.94 107.428 128.539 107.25 129.166 107.123C129.793 106.996 130.428 106.909 131.071 106.861C131.713 106.813 132.324 106.79 132.904 106.79C133.538 106.79 134.189 106.821 134.856 106.885C135.53 106.948 136.193 107.039 136.843 107.159C137.494 107.27 138.121 107.401 138.724 107.551C139.335 107.702 139.898 107.861 140.414 108.027V111.812Z" fill="white"/>
<path d="M161.028 111.812C160.719 111.662 160.31 111.491 159.803 111.3C159.295 111.11 158.719 110.932 158.077 110.765C157.434 110.59 156.736 110.447 155.982 110.336C155.228 110.217 154.454 110.158 153.661 110.158C153.026 110.158 152.483 110.178 152.03 110.217C151.586 110.257 151.209 110.309 150.9 110.372C150.598 110.436 150.356 110.511 150.174 110.598C149.999 110.678 149.864 110.761 149.769 110.848C149.674 110.935 149.61 111.023 149.579 111.11C149.555 111.197 149.543 111.277 149.543 111.348C149.543 111.586 149.662 111.796 149.9 111.979C150.138 112.153 150.463 112.312 150.876 112.455C151.288 112.59 151.769 112.721 152.316 112.848C152.864 112.967 153.443 113.094 154.054 113.229C154.673 113.356 155.307 113.498 155.958 113.657C156.617 113.808 157.251 113.986 157.862 114.193C158.481 114.399 159.065 114.641 159.612 114.919C160.16 115.189 160.64 115.506 161.052 115.871C161.465 116.236 161.79 116.656 162.028 117.133C162.266 117.609 162.385 118.152 162.385 118.763C162.385 119.549 162.246 120.223 161.969 120.787C161.691 121.35 161.318 121.826 160.85 122.215C160.39 122.604 159.854 122.917 159.243 123.155C158.632 123.385 157.989 123.564 157.315 123.691C156.648 123.818 155.97 123.901 155.28 123.941C154.597 123.98 153.947 124 153.328 124C151.709 124 150.209 123.865 148.829 123.595C147.456 123.334 146.242 123.004 145.187 122.608V118.704C146.274 119.307 147.512 119.779 148.9 120.12C150.297 120.461 151.788 120.632 153.375 120.632C154.312 120.632 155.073 120.584 155.661 120.489C156.256 120.386 156.72 120.259 157.053 120.108C157.386 119.949 157.613 119.779 157.732 119.596C157.851 119.414 157.91 119.239 157.91 119.073C157.91 118.811 157.791 118.585 157.553 118.394C157.315 118.196 156.99 118.025 156.577 117.882C156.164 117.732 155.684 117.597 155.137 117.478C154.589 117.351 154.006 117.228 153.387 117.109C152.776 116.982 152.145 116.847 151.495 116.704C150.844 116.561 150.209 116.395 149.59 116.204C148.979 116.006 148.4 115.78 147.853 115.526C147.305 115.264 146.825 114.958 146.413 114.609C146 114.252 145.675 113.844 145.437 113.383C145.199 112.915 145.08 112.376 145.08 111.765C145.08 111.043 145.206 110.42 145.46 109.896C145.714 109.372 146.055 108.928 146.484 108.563C146.92 108.19 147.42 107.889 147.984 107.658C148.555 107.428 149.154 107.25 149.781 107.123C150.408 106.996 151.043 106.909 151.685 106.861C152.328 106.813 152.939 106.79 153.518 106.79C154.153 106.79 154.804 106.821 155.47 106.885C156.145 106.948 156.807 107.039 157.458 107.159C158.108 107.27 158.735 107.401 159.338 107.551C159.949 107.702 160.513 107.861 161.028 108.027V111.812Z" fill="white"/>
<defs>
<linearGradient id="paint0_linear_3829_3722" x1="24.2263" y1="32.6156" x2="63.9043" y2="81.7389" gradientUnits="userSpaceOnUse">
<stop stop-color="#19A3E1"/>
<stop offset="1" stop-color="#003393"/>
</linearGradient>
<linearGradient id="paint1_linear_3829_3722" x1="161.299" y1="26.541" x2="64.662" y2="55.1552" gradientUnits="userSpaceOnUse">
<stop stop-color="#19A3E1"/>
<stop offset="1" stop-color="#0A5AA2"/>
</linearGradient>
<linearGradient id="paint2_linear_3829_3722" x1="77.1432" y1="17.2687" x2="54.0587" y2="96.5333" gradientUnits="userSpaceOnUse">
<stop stop-color="#8FC5BE"/>
<stop offset="1" stop-color="#1BA0DA"/>
</linearGradient>
<clipPath id="clip0_3829_3722">
<rect width="168.949" height="88.2569" fill="white"/>
</clipPath>
</defs>
</svg>
